
CASCADE Topology V1, (c) Matra-Datavision
Locations 18
1
1.000000000000000 0.000000000000000 0.000000000000000 0.000000000000000 
0.000000000000000 1.000000000000000 0.000000000000000 0.000000000000000 
0.000000000000000 0.000000000000000 1.000000000000000 0.000000000000000 
1
1.000000000000000 0.000000000000000 0.000000000000000 0.000000000000000 
0.000000000000000 1.000000000000000 0.000000000000000 0.000000000000000 
0.000000000000000 0.000000000000000 1.000000000000000 0.000000000000000 
1
1.000000000000000 0.000000000000000 0.000000000000000 0.000000000000000 
0.000000000000000 1.000000000000000 0.000000000000000 0.000000000000000 
0.000000000000000 0.000000000000000 1.000000000000000 0.000000000000000 
1
1.000000000000000 0.000000000000000 0.000000000000000 0.000000000000000 
0.000000000000000 1.000000000000000 0.000000000000000 0.000000000000000 
0.000000000000000 0.000000000000000 1.000000000000000 0.000000000000000 
1
1.000000000000000 0.000000000000000 0.000000000000000 0.000000000000000 
0.000000000000000 1.000000000000000 0.000000000000000 0.000000000000000 
0.000000000000000 0.000000000000000 1.000000000000000 0.000000000000000 
2  3 1 4 1 5 -1 0
1
1.000000000000000 0.000000000000000 0.000000000000000 0.000000000000000 
0.000000000000000 1.000000000000000 0.000000000000000 0.000000000000000 
0.000000000000000 0.000000000000000 1.000000000000000 3.000000000000000 
2  3 1 4 1 5 -1 7 1 0
2  5 1 4 -1 3 -1 0
2  7 -1 5 1 4 -1 3 -1 0
2  4 -1 3 -1 0
2  5 -1 2 1 0
2  3 1 4 1 0
2  5 -1 7 1 2 1 0
2  2 -1 7 -1 5 1 0
2  3 1 4 1 5 -1 7 1 2 1 0
2  2 -1 0
2  2 -1 5 1 0
Curve2ds 9
1 0.00000000000000000 0.00000000000000000 0.00000000000000000 -1.00000000000000000 
1 6.28318530717958623 0.00000000000000000 0.00000000000000000 -1.00000000000000000 
1 0.00000000000000000 0.00000000000000000 1.00000000000000000 0.00000000000000000 
1 0.00000000000000000 -3.00000000000000000 1.00000000000000000 0.00000000000000000 
2 0.00000000000000219 -0.00000000000000274 1.00000000000000000 0.00000000000000000 -0.00000000000000000 1.00000000000000000 40.00000000000000000
2 0.00000000000000219 -0.00000000000000274 1.00000000000000000 0.00000000000000000 0.00000000000000000 -1.00000000000000000 43.00000000000000000
1 6.28318530717958623 -3.00000000000000000 -1.00000000000000000 0.00000000000000000 
1 6.28318530717958623 3.00000000000000000 -1.00000000000000000 0.00000000000000000 
2 0.00000000000000219 -0.00000000000000274 1.00000000000000000 0.00000000000000000 0.00000000000000000 -1.00000000000000000 43.00000000000000000
Curves 5
1 40.00000000000000000 0.00000000000000000 0.00000000000000000 0.00000000000000000 0.00000000000000000 1.00000000000000000 
2 0.00000000000000000 0.00000000000000000 0.00000000000000000 0.00000000000000000 0.00000000000000000 1.00000000000000000 1.00000000000000000 0.00000000000000000 -0.00000000000000000 -0.00000000000000000 1.00000000000000000 0.00000000000000000 40.00000000000000000
2 0.00000000000000000 0.00000000000000000 3.00000000000000000 0.00000000000000000 0.00000000000000000 -1.00000000000000000 1.00000000000000000 0.00000000000000000 0.00000000000000000 0.00000000000000000 -1.00000000000000000 0.00000000000000000 43.00000000000000000
2 0.00000000000000000 0.00000000000000000 -3.00000000000000000 0.00000000000000000 0.00000000000000000 -1.00000000000000000 1.00000000000000000 0.00000000000000000 0.00000000000000000 0.00000000000000000 -1.00000000000000000 0.00000000000000000 43.00000000000000000
1 43.00000000000000000 0.00000000000000000 0.00000000000000000 0.00000000000000000 0.00000000000000000 1.00000000000000000 
Polygon3D 0
PolygonOnTriangulations 0
Surfaces 4
2 0.00000000000000000 0.00000000000000000 0.00000000000000000 -0.00000000000000000 -0.00000000000000000 -1.00000000000000000 1.00000000000000000 0.00000000000000000 0.00000000000000000 -0.00000000000000000 1.00000000000000000 -0.00000000000000000 40.00000000000000000
1 -0.00000000000000219 0.00000000000000274 0.00000000000000000 0.00000000000000000 0.00000000000000000 1.00000000000000000 1.00000000000000000 0.00000000000000000 -0.00000000000000000 -0.00000000000000000 1.00000000000000000 0.00000000000000000 
2 0.00000000000000000 0.00000000000000000 0.00000000000000000 -0.00000000000000000 -0.00000000000000000 -1.00000000000000000 1.00000000000000000 0.00000000000000000 0.00000000000000000 -0.00000000000000000 1.00000000000000000 -0.00000000000000000 43.00000000000000000
1 -0.00000000000000219 0.00000000000000274 -3.00000000000000000 0.00000000000000000 0.00000000000000000 1.00000000000000000 1.00000000000000000 0.00000000000000000 -0.00000000000000000 -0.00000000000000000 1.00000000000000000 0.00000000000000000 
Triangulations 0

TShapes 21
Ve
0.001000000000000
40.000000000000000 0.000000000000000 0.000000000000000
0 0

0101101
*
Ed
 0.000000100000000 1 1 0
1  1 0 0.000000000000000 3.000000000000000
3  1 2CN 1 0 0.000000000000000 3.000000000000000
0

0101000
+21 6 -21 8 *
Ed
 0.001000000000000 1 1 0
1  2 0 0.000000000000000 6.283185307179586
2  3 1 9 0.000000000000000 6.283185307179586
2  4 1 10 0.000000000000000 6.283185307179586
2  5 2 11 0.000000000000000 6.283185307179586
0

0101100
+21 0 -21 0 *
Wi

0101100
+20 0 -20 0 -19 6 +19 8 *
Fa
0  0.000000100000000 1 0

0111000
+18 0 *
Wi

0101100
+19 0 *
Fa
0  0.000000100000000 2 0

0111000
+16 13 *
Wi

0101100
-19 16 *
Ve
0.001000000000000
43.000000000000000 0.000000000000000 3.000000000000000
0 0

0101101
*
Ed
 0.001000000000000 1 1 0
1  3 0 0.000000000000000 6.283185307179586
2  6 2 14 0.000000000000000 6.283185307179586
2  7 3 2 0.000000000000000 6.283185307179586
0

0101100
+13 0 -13 0 *
Wi

0101100
-12 0 *
Fa
0  0.000000100000000 2 0

0111000
+14 15 +11 15 *
Ve
0.001000000000000
43.000000000000000 0.000000000000000 -3.000000000000000
0 0

0101101
*
Ed
 0.001000000000000 1 1 0
1  4 0 0.000000000000000 6.283185307179586
2  8 3 2 0.000000000000000 6.283185307179586
2  9 4 12 0.000000000000000 6.283185307179586
0

0101100
+9 0 -9 0 *
Ed
 0.001000000000000 1 1 0
1  5 2 -3.000000000000000 3.000000000000000
3  1 2CN 3 2 -3.000000000000000 3.000000000000000
0

0101000
+9 0 -13 0 *
Wi

0101100
+8 0 +7 0 -12 0 -7 0 *
Fa
0  0.000000100000000 3 0

0111000
+6 17 *
Wi

0101100
-8 0 *
Fa
0  0.000000100000000 4 0

0111000
+4 18 *
Sh

0101100
-17 2 -15 12 -10 14 +5 2 +3 12 *
So

1100100
+2 0 *

-1 1 